<?xml version="1.0" encoding="UTF-8" standalone="no"?>
<!DOCTYPE svg PUBLIC "-//W3C//DTD SVG 1.1//EN" "http://www.w3.org/Graphics/SVG/1.1/DTD/svg11.dtd">
<svg version="1.1" xmlns="http://www.w3.org/2000/svg" xmlns:xlink="http://www.w3.org/1999/xlink" preserveAspectRatio="xMidYMid meet" viewBox="0 0 640 640" width="640" height="640"><defs><path d="M56.91 10.39L48.58 10.39L48.58 34.06L42.69 34.06L42.69 10.39L34.36 10.39C34.36 8.85 34.36 8 34.36 7.82C34.4 6.23 34.43 5.35 34.43 5.18C34.46 5.14 39.53 5.12 45.68 5.13C46.42 5.13 50.15 5.14 56.86 5.16C56.86 5.34 56.87 6.21 56.89 7.77L56.91 10.39Z" id="a3AHUXF7gC"></path><path d="M20.65 9.12C20.67 9.2 17.89 11.07 16.2 12.11C16.14 12.15 15.9 11.89 15.62 11.48C14.8 10.28 13.94 9.77 12.62 9.68C10.68 9.54 9.42 10.56 9.44 12.26C9.44 12.75 9.51 13.05 9.71 13.46C10.14 14.34 10.93 14.87 13.42 15.95C18 17.92 19.96 19.22 21.18 21.07C22.54 23.13 22.84 26.42 21.92 28.87C20.9 31.53 18.39 33.34 14.84 33.94C13.74 34.13 11.14 34.1 9.96 33.89C7.39 33.43 4.96 32.16 3.45 30.49C2.86 29.84 1.72 28.15 1.79 28.02C1.82 27.98 2.08 27.82 2.38 27.65C2.54 27.56 3.33 27.1 4.75 26.28C4.93 26.17 6.4 25.32 6.59 25.21C6.83 25.55 6.95 25.74 6.98 25.78C7.52 26.6 8.7 27.73 9.41 28.11C11.45 29.18 14.25 29.03 15.64 27.79C16.23 27.25 16.47 26.7 16.47 25.87C16.47 25.13 16.38 24.81 15.99 24.25C15.49 23.54 14.48 22.94 11.59 21.69C8.29 20.27 6.87 19.38 5.57 17.98C4.82 17.17 4.1 15.87 3.81 14.78C3.57 13.88 3.5 11.61 3.7 10.7C4.38 7.5 6.79 5.28 10.26 4.62C11.39 4.41 14.01 4.49 15.12 4.76C16.74 5.16 17.98 5.89 19.12 7.06C19.71 7.69 20.58 8.84 20.65 9.12ZM0.11 10.05L-8.22 10.05L-8.22 33.72L-14.11 33.72L-14.11 10.05L-22.44 10.05C-22.44 8.51 -22.44 7.65 -22.44 7.48C-22.4 5.89 -22.37 5.01 -22.37 4.84C-22.34 4.8 -17.27 4.78 -11.12 4.79C-10.38 4.79 -6.65 4.8 0.06 4.82C0.06 4.99 0.07 5.86 0.09 7.43L0.11 10.05Z" id="b5eRMhuJkz"></path><path d="M41.03 20.42C41.03 19.55 41.03 12.54 41.03 11.67C41.03 11.67 41.03 8.02 19.15 5.83C19.15 7.59 19.15 12.84 19.15 14.59C23.52 15.76 41.03 16.77 41.03 20.42Z" id="b3zQIycZtW"></path><linearGradient id="gradientf5KYc9sMOb" gradientUnits="userSpaceOnUse" x1="19.18" y1="13.08" x2="40.99" y2="13.08"><stop style="stop-color: #656565;stop-opacity: 1" offset="0%"></stop><stop style="stop-color: #010101;stop-opacity: 1" offset="100%"></stop></linearGradient><path d="M41.03 20.42C41.03 19.55 41.03 12.54 41.03 11.67C41.03 11.67 41.03 8.02 19.15 5.83C19.15 7.59 19.15 12.84 19.15 14.59C23.52 15.76 41.03 16.77 41.03 20.42Z" id="c1tBiy5uNz"></path><path d="M41.03 0C41.03 5.25 41.03 8.17 41.03 8.75C41.03 8.75 41.03 12.4 19.15 14.59C19.15 13.71 19.15 6.71 19.15 5.83C19.15 5.83 41.03 3.65 41.03 0" id="a61I1ijG0I"></path><linearGradient id="gradientcbwH75em8" gradientUnits="userSpaceOnUse" x1="19.18" y1="7.3" x2="40.99" y2="7.3"><stop style="stop-color: #9f1c20;stop-opacity: 1" offset="0%"></stop><stop style="stop-color: #ed2224;stop-opacity: 1" offset="100%"></stop></linearGradient><path d="M41.03 0C41.03 5.25 41.03 8.17 41.03 8.75C41.03 8.75 41.03 12.4 19.15 14.59C19.15 13.71 19.15 6.71 19.15 5.83C19.15 5.83 41.03 3.65 41.03 0" id="b3mRWYamIM"></path><path d="M41.03 32.09C41.03 31.22 41.03 24.21 41.03 23.34C41.03 23.34 41.03 19.69 19.15 17.5C19.15 19.25 19.15 24.51 19.15 26.26C23.52 27.43 41.03 28.44 41.03 32.09Z" id="acVJHemj4"></path><linearGradient id="gradientbzR7Oq6Gw" gradientUnits="userSpaceOnUse" x1="19.18" y1="24.77" x2="40.99" y2="24.77"><stop style="stop-color: #656565;stop-opacity: 1" offset="0%"></stop><stop style="stop-color: #010101;stop-opacity: 1" offset="100%"></stop></linearGradient><path d="M41.03 32.09C41.03 31.22 41.03 24.21 41.03 23.34C41.03 23.34 41.03 19.69 19.15 17.5C19.15 19.25 19.15 24.51 19.15 26.26C23.52 27.43 41.03 28.44 41.03 32.09Z" id="f36M6QAKiK"></path><path d="M19.15 37.93C19.15 32.67 19.15 29.76 19.15 29.17C19.15 29.17 41.03 26.99 41.03 23.34C41.03 24.21 41.03 31.22 41.03 32.09C41.03 32.09 41.03 35.74 19.15 37.93" id="abJy84wo1"></path><linearGradient id="gradientd1wXg2yEWS" gradientUnits="userSpaceOnUse" x1="19.18" y1="30.7" x2="40.99" y2="30.7"><stop style="stop-color: #9f1c20;stop-opacity: 1" offset="0%"></stop><stop style="stop-color: #ed2224;stop-opacity: 1" offset="100%"></stop></linearGradient><path d="M19.15 37.93C19.15 32.67 19.15 29.76 19.15 29.17C19.15 29.17 41.03 26.99 41.03 23.34C41.03 24.21 41.03 31.22 41.03 32.09C41.03 32.09 41.03 35.74 19.15 37.93" id="bfZ1Ub5Xb"></path><path d="M41.03 11.67C41.03 12.54 41.03 19.55 41.03 20.42C41.03 20.42 41.03 24.07 19.15 26.26C19.15 24.51 19.15 19.25 19.15 17.5C23.52 16.33 41.03 15.32 41.03 11.67Z" id="ceXtTsrvO"></path><linearGradient id="gradiente4cUw2BTJM" gradientUnits="userSpaceOnUse" x1="19.18" y1="19" x2="40.99" y2="19"><stop style="stop-color: #9f1c20;stop-opacity: 1" offset="0%"></stop><stop style="stop-color: #ed2224;stop-opacity: 1" offset="100%"></stop></linearGradient><path d="M41.03 11.67C41.03 12.54 41.03 19.55 41.03 20.42C41.03 20.42 41.03 24.07 19.15 26.26C19.15 24.51 19.15 19.25 19.15 17.5C23.52 16.33 41.03 15.32 41.03 11.67Z" id="aqmuSPaW0"></path></defs><g><g><g><use xlink:href="#a3AHUXF7gC" opacity="1" fill="#0d0c0c" fill-opacity="1"></use><g><use xlink:href="#a3AHUXF7gC" opacity="1" fill-opacity="0" stroke="#000000" stroke-width="1" stroke-opacity="0"></use></g></g><g><use xlink:href="#b5eRMhuJkz" opacity="1" fill="#484848" fill-opacity="1"></use><g><use xlink:href="#b5eRMhuJkz" opacity="1" fill-opacity="0" stroke="#000000" stroke-width="1" stroke-opacity="0"></use></g></g><g><g><use xlink:href="#b3zQIycZtW" opacity="1" fill="url(#gradientf5KYc9sMOb)"></use><g><use xlink:href="#b3zQIycZtW" opacity="1" fill-opacity="0" stroke="#000000" stroke-width="1" stroke-opacity="0"></use></g></g><g><use xlink:href="#c1tBiy5uNz" opacity="1" fill="#000000" fill-opacity="0"></use><g><use xlink:href="#c1tBiy5uNz" opacity="1" fill-opacity="0" stroke="#000000" stroke-width="1" stroke-opacity="0"></use></g></g><g><use xlink:href="#a61I1ijG0I" opacity="1" fill="url(#gradientcbwH75em8)"></use><g><use xlink:href="#a61I1ijG0I" opacity="1" fill-opacity="0" stroke="#000000" stroke-width="1" stroke-opacity="0"></use></g></g><g><use xlink:href="#b3mRWYamIM" opacity="1" fill="#000000" fill-opacity="0"></use><g><use xlink:href="#b3mRWYamIM" opacity="1" fill-opacity="0" stroke="#000000" stroke-width="1" stroke-opacity="0"></use></g></g><g><use xlink:href="#acVJHemj4" opacity="1" fill="url(#gradientbzR7Oq6Gw)"></use><g><use xlink:href="#acVJHemj4" opacity="1" fill-opacity="0" stroke="#000000" stroke-width="1" stroke-opacity="0"></use></g></g><g><use xlink:href="#f36M6QAKiK" opacity="1" fill="#000000" fill-opacity="0"></use><g><use xlink:href="#f36M6QAKiK" opacity="1" fill-opacity="0" stroke="#000000" stroke-width="1" stroke-opacity="0"></use></g></g><g><use xlink:href="#abJy84wo1" opacity="1" fill="url(#gradientd1wXg2yEWS)"></use><g><use xlink:href="#abJy84wo1" opacity="1" fill-opacity="0" stroke="#000000" stroke-width="1" stroke-opacity="0"></use></g></g><g><use xlink:href="#bfZ1Ub5Xb" opacity="1" fill="#000000" fill-opacity="0"></use><g><use xlink:href="#bfZ1Ub5Xb" opacity="1" fill-opacity="0" stroke="#000000" stroke-width="1" stroke-opacity="0"></use></g></g><g><use xlink:href="#ceXtTsrvO" opacity="1" fill="url(#gradiente4cUw2BTJM)"></use><g><use xlink:href="#ceXtTsrvO" opacity="1" fill-opacity="0" stroke="#000000" stroke-width="1" stroke-opacity="0"></use></g></g><g><use xlink:href="#aqmuSPaW0" opacity="1" fill="#000000" fill-opacity="0"></use><g><use xlink:href="#aqmuSPaW0" opacity="1" fill-opacity="0" stroke="#000000" stroke-width="1" stroke-opacity="0"></use></g></g></g></g></g></svg>