<?xml version="1.0" encoding="UTF-8" standalone="no"?>
<!DOCTYPE svg PUBLIC "-//W3C//DTD SVG 1.1//EN" "http://www.w3.org/Graphics/SVG/1.1/DTD/svg11.dtd">
<svg version="1.1" xmlns="http://www.w3.org/2000/svg" xmlns:xlink="http://www.w3.org/1999/xlink"
     preserveAspectRatio="xMidYMid meet" width="64" height="64">
    <defs>
        <path d="M41.56 6.74C42.15 7.37 43.02 8.52 43.09 8.8C43.11 8.88 40.33 10.75 38.64 11.79C38.58 11.83 38.34 11.57 38.06 11.16C37.24 9.96 36.38 9.45 35.06 9.36C33.12 9.22 31.86 10.24 31.88 11.94C31.88 12.43 31.95 12.73 32.15 13.14C32.58 14.02 33.37 14.55 35.86 15.63C40.44 17.6 42.4 18.9 43.62 20.75C44.98 22.81 45.28 26.1 44.36 28.55C43.34 31.21 40.83 33.02 37.28 33.62C36.18 33.81 33.58 33.78 32.4 33.57C29.83 33.11 27.4 31.84 25.89 30.17C25.3 29.52 24.16 27.83 24.23 27.7C24.26 27.66 24.52 27.5 24.82 27.33C24.98 27.24 25.77 26.78 27.19 25.96L29.03 24.89C29.27 25.23 29.39 25.42 29.42 25.46C29.96 26.28 31.14 27.41 31.85 27.79C33.89 28.86 36.69 28.71 38.08 27.47C38.67 26.93 38.91 26.38 38.91 25.55C38.91 24.81 38.82 24.49 38.43 23.93C37.93 23.22 36.92 22.62 34.03 21.37C30.73 19.95 29.31 19.06 28.01 17.66C27.26 16.85 26.54 15.55 26.25 14.46C26.01 13.56 25.94 11.29 26.14 10.38C26.82 7.18 29.23 4.96 32.7 4.3C33.83 4.09 36.45 4.17 37.56 4.44C39.18 4.84 40.42 5.57 41.56 6.74ZM22.53 7.11L22.55 9.73L14.22 9.73L14.22 33.4L8.33 33.4L8.33 9.73L0 9.73L0 7.16C0.04 5.57 0.07 4.69 0.07 4.52C0.1 4.48 5.17 4.46 11.32 4.47C12.06 4.47 15.79 4.48 22.5 4.5L22.53 7.11Z"
              id="a2qwAjtHiH"></path>
        <linearGradient id="gradientdfFRQKvzB" gradientUnits="userSpaceOnUse" x1="43.39" y1="20.63" x2="8.33"
                        y2="19.82">
            <stop style="stop-color: #070607;stop-opacity: 1" offset="0%"></stop>
            <stop style="stop-color: #282829;stop-opacity: 1" offset="50.02589329554387%"></stop>
            <stop style="stop-color: #5d5c5e;stop-opacity: 1" offset="100%"></stop>
        </linearGradient>
        <path d="M11.51 14.59C11.51 14.59 33.39 16.77 33.39 20.42C33.39 19.55 33.39 12.54 33.39 11.67C33.39 11.67 33.39 8.02 11.51 5.83C11.51 7.59 11.51 12.84 11.51 14.59Z"
              id="elhvctkqf"></path>
        <linearGradient id="gradientgZc1uftEh" gradientUnits="userSpaceOnUse" x1="11.54" y1="13.08" x2="33.35"
                        y2="13.08">
            <stop style="stop-color: #656565;stop-opacity: 1" offset="0%"></stop>
            <stop style="stop-color: #010101;stop-opacity: 1" offset="100%"></stop>
        </linearGradient>
        <path d="M33.39 0C33.39 5.25 33.39 8.17 33.39 8.75C33.39 8.75 33.39 12.4 11.51 14.59C11.51 13.71 11.51 6.71 11.51 5.83C11.51 5.83 33.39 3.65 33.39 0"
              id="d1Nf9I3cg2"></path>
        <linearGradient id="gradientaMyw9v82J" gradientUnits="userSpaceOnUse" x1="11.54" y1="7.3" x2="33.35" y2="7.3">
            <stop style="stop-color: #9f1c20;stop-opacity: 1" offset="0%"></stop>
            <stop style="stop-color: #ed2224;stop-opacity: 1" offset="100%"></stop>
        </linearGradient>
        <path d="M11.51 26.26C11.51 26.26 33.39 28.44 33.39 32.09C33.39 31.22 33.39 24.21 33.39 23.34C33.39 23.34 33.39 19.69 11.51 17.5C11.51 19.25 11.51 24.51 11.51 26.26Z"
              id="c1NfTfN1fq"></path>
        <linearGradient id="gradientf3XSZhR22" gradientUnits="userSpaceOnUse" x1="11.54" y1="24.77" x2="33.35"
                        y2="24.77">
            <stop style="stop-color: #656565;stop-opacity: 1" offset="0%"></stop>
            <stop style="stop-color: #010101;stop-opacity: 1" offset="100%"></stop>
        </linearGradient>
        <path d="M11.51 37.93C11.51 32.67 11.51 29.76 11.51 29.17C11.51 29.17 33.39 26.99 33.39 23.34C33.39 24.21 33.39 31.22 33.39 32.09C33.39 32.09 33.39 35.74 11.51 37.93"
              id="bNzJaBvGv"></path>
        <linearGradient id="gradientc1UkR4iPDp" gradientUnits="userSpaceOnUse" x1="11.54" y1="30.7" x2="33.35"
                        y2="30.7">
            <stop style="stop-color: #9f1c20;stop-opacity: 1" offset="0%"></stop>
            <stop style="stop-color: #ed2224;stop-opacity: 1" offset="100%"></stop>
        </linearGradient>
        <path d="M11.51 17.5C11.51 17.5 33.39 15.32 33.39 11.67C33.39 12.54 33.39 19.55 33.39 20.42C33.39 20.42 33.39 24.07 11.51 26.26C11.51 24.51 11.51 19.25 11.51 17.5Z"
              id="b3eYbFVdLJ"></path>
        <linearGradient id="gradientaA3eee2c" gradientUnits="userSpaceOnUse" x1="11.54" y1="19" x2="33.35" y2="19">
            <stop style="stop-color: #9f1c20;stop-opacity: 1" offset="0%"></stop>
            <stop style="stop-color: #ed2224;stop-opacity: 1" offset="100%"></stop>
        </linearGradient>
    </defs>
    <g>
        <g>
            <g>
                <use xlink:href="#a2qwAjtHiH" opacity="1" fill="url(#gradientdfFRQKvzB)"></use>
                <g>
                    <use xlink:href="#a2qwAjtHiH" opacity="1" fill-opacity="0" stroke="#000000" stroke-width="1"
                         stroke-opacity="0"></use>
                </g>
            </g>
            <g>
                <use xlink:href="#elhvctkqf" opacity="1" fill="url(#gradientgZc1uftEh)"></use>
                <g>
                    <use xlink:href="#elhvctkqf" opacity="1" fill-opacity="0" stroke="#000000" stroke-width="1"
                         stroke-opacity="0"></use>
                </g>
            </g>
            <g>
                <use xlink:href="#d1Nf9I3cg2" opacity="1" fill="url(#gradientaMyw9v82J)"></use>
                <g>
                    <use xlink:href="#d1Nf9I3cg2" opacity="1" fill-opacity="0" stroke="#000000" stroke-width="1"
                         stroke-opacity="0"></use>
                </g>
            </g>
            <g>
                <use xlink:href="#c1NfTfN1fq" opacity="1" fill="url(#gradientf3XSZhR22)"></use>
                <g>
                    <use xlink:href="#c1NfTfN1fq" opacity="1" fill-opacity="0" stroke="#000000" stroke-width="1"
                         stroke-opacity="0"></use>
                </g>
            </g>
            <g>
                <use xlink:href="#bNzJaBvGv" opacity="1" fill="url(#gradientc1UkR4iPDp)"></use>
                <g>
                    <use xlink:href="#bNzJaBvGv" opacity="1" fill-opacity="0" stroke="#000000" stroke-width="1"
                         stroke-opacity="0"></use>
                </g>
            </g>
            <g>
                <use xlink:href="#b3eYbFVdLJ" opacity="1" fill="url(#gradientaA3eee2c)"></use>
                <g>
                    <use xlink:href="#b3eYbFVdLJ" opacity="1" fill-opacity="0" stroke="#000000" stroke-width="1"
                         stroke-opacity="0"></use>
                </g>
            </g>
        </g>
    </g>
</svg>